<?xml version="1.0" encoding="UTF-8" standalone="no"?>
<!DOCTYPE svg PUBLIC "-//W3C//DTD SVG 20010904//EN"
              "http://www.w3.org/TR/2001/REC-SVG-20010904/DTD/svg10.dtd">

<svg xmlns="http://www.w3.org/2000/svg"
     width="73.3815mm" height="70.5592mm"
     viewBox="0 0 416 400">
  <path id="Selection"
        fill="#E1E1E1" stroke="none" stroke-width="1"
        d="M 232.00,6.43
           C 253.81,3.73 277.58,10.05 297.00,19.75
             333.19,37.85 364.76,67.87 384.85,103.00
             393.79,118.64 403.78,142.82 404.00,161.00
             404.11,171.10 404.41,179.25 400.91,189.00
             395.85,203.10 377.86,220.14 367.00,231.00
             336.28,261.72 303.97,282.00 261.00,290.60
             252.33,292.33 241.80,293.99 233.00,294.00
             233.00,294.00 189.00,294.00 189.00,294.00
             184.26,294.01 181.70,294.15 177.00,295.10
             173.77,295.75 171.68,296.53 169.02,298.56
             152.46,311.14 163.83,327.96 164.00,342.00
             164.00,342.00 164.00,346.00 164.00,346.00
             163.88,372.13 142.33,390.29 117.00,390.00
             99.70,389.79 83.92,379.00 77.45,363.00
             72.87,351.67 74.81,346.64 72.07,342.02
             67.90,334.99 59.84,336.63 52.00,334.28
             41.08,331.00 32.17,325.00 26.35,315.00
             15.66,296.65 18.21,270.44 35.01,256.47
             44.84,248.29 55.53,245.86 68.00,246.00
             80.48,246.15 88.62,253.31 101.00,248.53
             113.89,243.56 115.98,234.44 116.00,222.00
             116.00,222.00 116.00,175.00 116.00,175.00
             116.01,167.29 117.31,159.60 118.59,152.00
             125.96,108.18 148.37,72.64 180.00,42.04
             180.00,42.04 195.00,27.91 195.00,27.91
             208.20,15.61 213.34,9.49 232.00,6.43 Z
           M 250.00,42.29
           C 240.73,43.62 234.00,44.17 226.04,50.10
             207.14,64.19 210.81,95.14 219.31,114.00
             233.04,144.46 264.19,176.80 295.00,190.00
             305.48,194.49 321.57,199.20 333.00,197.71
             337.88,197.08 342.56,195.87 347.00,193.74
             373.04,181.24 370.38,149.65 360.99,127.00
             348.80,97.63 320.63,69.00 293.00,53.73
             281.27,47.25 263.51,41.15 250.00,42.29 Z
           M 273.00,96.57
           C 289.09,93.65 304.20,105.02 311.19,119.00
             314.46,125.53 316.59,138.37 308.91,142.69
             306.30,144.15 302.92,144.06 300.00,143.99
             286.61,143.67 272.09,130.03 267.47,118.00
             264.55,110.40 264.38,100.03 273.00,96.57 Z" />
</svg>
