<?xml version="1.0" encoding="UTF-8" standalone="no"?>
<!DOCTYPE svg PUBLIC "-//W3C//DTD SVG 20010904//EN"
              "http://www.w3.org/TR/2001/REC-SVG-20010904/DTD/svg10.dtd">

<svg xmlns="http://www.w3.org/2000/svg"
     width="79.0263mm" height="70.5592mm"
     viewBox="0 0 448 400">
  <path id="Selection"
        fill="#E1E1E1" stroke="none" stroke-width="1"
        d="M 399.00,51.00
           C 399.00,51.00 364.00,62.08 364.00,62.08
             337.64,71.12 308.09,84.94 287.00,103.29
             246.39,138.61 231.93,169.61 201.12,210.00
             176.75,241.94 155.30,263.38 123.00,287.12
             107.56,298.46 80.27,314.59 63.00,323.25
             63.00,323.25 40.00,333.72 40.00,333.72
             35.92,334.12 31.69,328.65 29.00,326.01
             19.70,316.90 10.55,311.28 9.33,297.00
             7.95,280.85 23.01,273.54 35.00,267.25
             62.26,252.96 91.77,233.22 114.00,211.96
             125.03,201.41 145.25,178.35 154.53,166.00
             154.53,166.00 174.04,138.00 174.04,138.00
             174.04,138.00 180.22,130.00 180.22,130.00
             180.22,130.00 189.43,116.00 189.43,116.00
             202.02,98.37 223.90,72.29 240.00,58.29
             256.06,44.32 274.67,33.41 294.00,24.70
             294.00,24.70 325.00,12.67 325.00,12.67
             331.35,10.55 337.22,8.17 344.00,8.01
             362.79,7.58 369.27,19.76 381.04,32.00
             386.74,37.93 394.35,44.50 399.00,51.00 Z
           M 56.00,352.00
           C 56.00,352.00 94.00,331.69 94.00,331.69
             112.43,321.72 139.65,303.61 156.00,290.55
             177.56,273.33 195.92,252.41 213.20,231.00
             237.31,201.12 255.82,167.19 282.09,139.00
             289.37,131.19 301.36,119.64 310.00,113.43
             337.86,93.39 370.35,82.74 403.00,73.42
             406.18,72.51 415.37,69.13 418.00,69.78
             421.14,70.56 425.64,75.64 428.00,78.00
             436.62,86.62 442.00,91.17 442.00,104.00
             442.00,107.46 442.02,109.70 440.72,113.00
             434.92,127.74 415.51,130.59 402.00,135.68
             384.45,142.30 363.46,152.56 349.00,164.46
             349.00,164.46 337.17,175.58 337.17,175.58
             305.29,206.17 294.44,229.91 269.63,263.00
             241.99,299.85 213.51,330.33 175.00,356.00
             175.00,356.00 128.00,384.31 128.00,384.31
             120.59,388.32 112.85,393.43 104.00,392.53
             89.15,391.03 81.49,378.92 71.96,369.00
             66.59,363.41 60.53,358.32 56.00,352.00 Z" />
</svg>
