<?xml version="1.0" encoding="UTF-8" standalone="no"?>
<!DOCTYPE svg PUBLIC "-//W3C//DTD SVG 20010904//EN"
              "http://www.w3.org/TR/2001/REC-SVG-20010904/DTD/svg10.dtd">

<svg xmlns="http://www.w3.org/2000/svg"
     width="70.912mm" height="63.8561mm"
     viewBox="0 0 402 362">
  <path id="Selection"
        fill="#E1E1E1" stroke="none" stroke-width="1"
        d="M 170.00,14.21
           C 170.00,14.21 221.00,14.21 221.00,14.21
             221.00,14.21 245.01,15.86 245.01,15.86
             273.26,18.02 297.84,21.90 325.00,30.28
             335.77,33.61 350.60,39.85 358.91,47.44
             364.23,52.30 367.62,59.81 365.24,67.00
             361.24,79.07 344.23,87.31 333.00,91.31
             317.42,96.85 295.36,102.51 279.00,104.71
             279.00,104.71 251.00,107.83 251.00,107.83
             251.00,107.83 242.00,108.42 242.00,108.42
             229.24,110.11 216.39,107.20 206.04,117.10
             202.69,120.31 200.66,123.50 199.51,128.00
             198.58,131.64 198.05,136.24 198.00,140.00
             197.90,149.14 199.63,163.14 195.05,171.00
             186.54,185.59 162.69,186.05 153.40,171.96
             150.25,167.19 150.03,163.50 150.00,158.00
             150.00,158.00 150.00,128.00 150.00,128.00
             149.99,123.80 149.87,117.77 147.84,114.02
             143.93,106.79 134.88,105.83 129.65,112.21
             126.17,116.45 126.01,122.80 126.00,128.00
             126.00,128.00 126.00,193.00 126.00,193.00
             125.99,200.29 125.20,206.10 119.67,211.53
             109.05,221.99 88.49,220.07 80.79,206.99
             77.95,202.17 78.01,198.36 78.00,193.00
             78.00,193.00 78.00,134.00 78.00,134.00
             78.00,125.77 78.62,111.24 75.00,104.00
             68.26,90.51 52.27,88.40 41.00,80.08
             34.52,75.29 29.51,69.51 30.10,61.00
             31.07,46.77 50.24,37.79 62.00,33.32
             86.58,23.98 117.79,18.70 144.00,16.17
             144.00,16.17 170.00,14.21 170.00,14.21 Z
           M 163.00,38.15
           C 159.88,38.82 156.69,39.22 154.23,41.43
             149.83,45.36 149.85,54.63 154.23,58.57
             157.81,61.81 163.44,61.98 168.00,62.00
             168.00,62.00 226.00,62.00 226.00,62.00
             230.77,61.99 238.04,61.91 241.77,58.57
             246.51,54.34 246.12,44.44 240.89,40.73
             237.71,38.48 231.83,38.05 228.00,38.15
             228.00,38.15 163.00,38.15 163.00,38.15 Z
           M 17.00,89.00
           C 27.96,98.27 39.89,108.01 54.00,112.00
             54.00,112.00 54.00,150.00 54.00,150.00
             48.47,148.70 44.12,146.63 39.00,144.30
             24.23,137.59 5.22,126.64 6.04,108.00
             6.42,99.27 11.20,94.86 17.00,89.00 Z
           M 378.00,89.00
           C 380.95,91.12 383.25,93.06 385.45,96.00
             388.95,100.70 390.21,105.20 389.96,111.00
             389.30,126.13 373.15,136.25 361.00,142.24
             334.67,155.23 298.17,162.67 269.00,166.15
             269.00,166.15 220.00,170.00 220.00,170.00
             222.28,157.30 222.00,145.78 222.00,133.00
             222.00,133.00 238.00,132.00 238.00,132.00
             238.00,132.00 248.00,131.09 248.00,131.09
             273.69,129.29 299.18,125.50 324.00,118.42
             344.10,112.69 363.48,104.45 378.00,89.00 Z
           M 11.00,155.00
           C 11.00,155.00 36.00,167.99 36.00,167.99
             36.00,167.99 52.40,174.84 52.40,174.84
             52.40,174.84 54.00,182.00 54.00,182.00
             54.00,182.00 57.00,211.00 57.00,211.00
             39.39,205.13 7.00,192.91 6.04,171.00
             5.72,163.70 7.14,161.00 11.00,155.00 Z
           M 384.16,155.00
           C 393.00,162.95 391.06,176.24 384.16,185.00
             373.42,199.17 354.26,206.06 338.00,211.95
             320.76,218.19 294.38,222.88 276.00,225.28
             276.00,225.28 234.01,229.08 234.01,229.08
             234.01,229.08 220.00,230.00 220.00,230.00
             220.00,230.00 196.00,230.00 196.00,230.00
             196.00,230.00 171.00,230.00 171.00,230.00
             171.00,230.00 159.00,229.04 159.00,229.04
             153.17,228.78 142.36,228.52 137.00,227.00
             142.54,217.36 148.42,210.84 149.00,199.00
             157.92,201.10 164.41,207.15 181.00,204.70
             193.03,202.93 200.54,195.67 206.00,193.85
             209.86,192.56 217.64,193.05 222.00,193.00
             222.00,193.00 240.00,192.00 240.00,192.00
             240.00,192.00 250.00,191.09 250.00,191.09
             277.21,189.10 304.70,184.74 331.00,177.42
             349.31,172.33 368.39,166.19 384.16,155.00 Z
           M 11.00,215.00
           C 24.55,222.17 27.80,224.84 43.00,230.58
             76.28,243.13 114.69,248.67 150.00,251.09
             150.00,251.09 175.00,253.16 175.00,253.16
             175.00,253.16 200.00,253.16 200.00,253.16
             200.00,253.16 209.00,253.16 209.00,253.16
             253.12,252.93 310.54,246.15 352.00,230.95
             367.20,225.37 371.43,222.18 385.00,215.00
             394.69,228.68 389.73,241.45 378.00,251.82
             363.45,264.67 334.90,273.63 316.00,278.12
             289.03,284.52 261.60,287.50 234.01,289.08
             234.01,289.08 220.00,290.00 220.00,290.00
             220.00,290.00 174.00,290.00 174.00,290.00
             174.00,290.00 162.00,289.00 162.00,289.00
             162.00,289.00 153.00,289.00 153.00,289.00
             128.73,287.25 96.30,282.99 73.00,276.42
             55.54,271.50 31.69,263.90 18.00,251.82
             5.69,240.94 1.79,229.30 11.00,215.00 Z
           M 11.00,275.00
           C 24.55,282.17 27.80,284.84 43.00,290.58
             70.67,301.01 111.38,308.01 141.00,311.00
             141.00,311.00 149.00,311.00 149.00,311.00
             149.00,311.00 188.00,313.12 188.00,313.12
             188.00,313.12 200.00,313.12 200.00,313.12
             200.00,313.12 209.00,313.12 209.00,313.12
             209.00,313.12 224.00,313.12 224.00,313.12
             224.00,313.12 234.00,312.09 234.00,312.09
             234.00,312.09 268.00,309.16 268.00,309.16
             298.33,305.92 334.97,298.57 363.00,286.57
             363.00,286.57 385.00,275.00 385.00,275.00
             394.59,288.55 389.62,301.52 378.00,311.82
             363.57,324.60 334.78,333.66 316.00,338.12
             289.02,344.51 261.61,347.50 234.01,349.08
             234.01,349.08 220.00,350.00 220.00,350.00
             220.00,350.00 174.00,350.00 174.00,350.00
             174.00,350.00 162.00,349.00 162.00,349.00
             162.00,349.00 153.00,349.00 153.00,349.00
             128.73,347.25 96.30,342.99 73.00,336.42
             55.88,331.59 31.30,323.64 18.00,311.82
             5.73,300.90 1.79,289.30 11.00,275.00 Z" />
</svg>
