<?xml version="1.0" encoding="UTF-8" standalone="no"?>
<!DOCTYPE svg PUBLIC "-//W3C//DTD SVG 20010904//EN"
              "http://www.w3.org/TR/2001/REC-SVG-20010904/DTD/svg10.dtd">

<svg xmlns="http://www.w3.org/2000/svg"
     width="3.125in" height="3.125in"
     viewBox="0 0 225 225">
  <path id="Selection"
        fill="#E1E1E1" stroke="none" stroke-width="1"
        d="M 130.00,11.00
           C 132.46,8.57 138.85,2.08 142.00,1.21
             146.36,0.00 154.20,7.98 156.94,11.00
             158.15,12.34 159.80,14.06 159.80,16.00
             159.80,19.52 150.64,28.58 147.00,27.66
             144.63,27.07 139.87,21.88 138.00,20.00
             134.75,16.74 132.71,14.79 130.00,11.00 Z
           M 115.00,12.61
           C 124.14,11.84 133.88,24.88 140.00,31.00
             140.00,31.00 201.00,92.00 201.00,92.00
             204.34,95.34 210.31,100.62 211.82,105.00
             213.61,110.24 210.57,115.85 205.00,116.77
             196.86,118.11 186.42,104.42 181.00,99.00
             181.00,99.00 120.00,38.00 120.00,38.00
             114.40,32.40 101.15,22.53 111.13,14.51
             112.68,13.27 113.30,13.26 115.00,12.61 Z
           M 175.00,28.00
           C 181.82,32.88 191.12,42.18 196.00,49.00
             196.00,49.00 181.00,63.00 181.00,63.00
             181.00,63.00 162.00,43.00 162.00,43.00
             162.00,43.00 175.00,28.00 175.00,28.00 Z
           M 92.00,34.67
           C 94.25,34.22 95.67,33.78 98.00,34.67
             101.97,36.01 113.34,48.34 117.00,52.00
             117.00,52.00 177.00,112.00 177.00,112.00
             182.05,117.05 194.08,125.89 189.82,133.96
             188.78,135.93 187.08,137.46 184.98,138.26
             176.12,141.63 163.71,125.71 158.00,120.00
             158.00,120.00 98.00,60.00 98.00,60.00
             91.35,53.35 78.21,42.19 92.00,34.67 Z
           M 69.04,57.02
           C 77.46,54.16 80.40,58.41 86.00,64.00
             86.00,64.00 107.00,85.00 107.00,85.00
             107.00,85.00 144.00,122.00 144.00,122.00
             151.15,129.15 160.69,137.83 166.25,146.00
             179.31,165.18 174.21,174.13 186.76,191.00
             191.36,197.18 198.53,203.27 206.00,205.56
             212.77,207.63 223.54,205.41 224.85,215.00
             226.11,224.19 218.94,225.07 212.00,225.00
             199.47,224.87 187.06,218.42 178.29,209.71
             172.33,203.81 166.13,194.84 163.06,187.00
             159.13,176.95 157.63,165.96 151.21,157.00
             151.21,157.00 129.00,134.00 129.00,134.00
             129.00,134.00 88.00,93.00 88.00,93.00
             88.00,93.00 82.00,87.00 82.00,87.00
             82.00,87.00 73.00,78.00 73.00,78.00
             66.65,71.64 59.01,64.48 69.04,57.02 Z
           M 208.00,62.00
           C 213.80,64.80 217.69,70.83 221.35,76.00
             222.80,78.05 224.59,80.32 224.04,83.00
             223.23,86.94 216.22,92.70 213.00,95.00
             213.00,95.00 195.00,76.00 195.00,76.00
             195.00,76.00 208.00,62.00 208.00,62.00 Z
           M 60.00,76.00
           C 66.57,80.68 77.36,90.52 82.00,97.00
             78.01,100.99 65.50,112.14 64.47,117.00
             63.30,122.58 69.42,128.70 75.00,127.53
             79.48,126.58 85.58,119.27 89.00,116.02
             90.51,114.58 92.76,112.20 95.00,112.20
             98.24,112.20 108.58,123.19 110.84,126.00
             112.94,128.62 113.61,130.02 111.63,133.00
             108.94,137.05 98.36,145.09 96.78,150.00
             95.23,154.82 101.44,166.74 112.00,158.61
             112.00,158.61 118.00,153.00 118.00,153.00
             121.89,149.13 124.47,146.24 129.00,143.00
             129.00,143.00 141.84,157.00 141.84,157.00
             143.55,158.98 146.45,162.23 146.39,165.00
             146.29,168.96 136.96,177.02 134.00,180.00
             118.75,195.36 108.44,206.97 85.00,207.00
             85.00,207.00 55.00,203.09 55.00,203.09
             45.43,202.54 41.32,208.30 35.58,215.00
             33.80,217.08 29.66,222.69 26.91,222.89
             24.48,223.07 21.66,220.42 20.00,218.91
             20.00,218.91 6.02,205.00 6.02,205.00
             4.07,202.96 1.00,200.24 2.17,197.09
             2.90,195.12 6.36,192.46 8.00,191.08
             12.45,187.34 19.80,181.69 21.43,176.00
             23.34,169.32 18.38,149.77 18.04,141.00
             16.99,113.85 41.22,92.31 60.00,76.00 Z" />
</svg>
