<?xml version="1.0" encoding="UTF-8" standalone="no"?>
<!DOCTYPE svg PUBLIC "-//W3C//DTD SVG 20010904//EN"
              "http://www.w3.org/TR/2001/REC-SVG-20010904/DTD/svg10.dtd">

<svg xmlns="http://www.w3.org/2000/svg"
     width="70.03mm" height="70.912mm"
     viewBox="0 0 397 402">
  <path id="Selection"
        fill="#E1E1E1" stroke="none" stroke-width="1"
        d="M 87.00,70.00
           C 89.67,56.78 96.57,28.90 105.89,19.75
             117.01,8.82 130.80,9.63 145.00,11.58
             170.03,15.00 185.95,18.12 210.00,26.69
             285.44,53.56 349.05,119.16 374.33,195.00
             381.68,217.05 387.59,243.77 388.91,267.00
             389.43,276.21 385.99,286.41 379.48,293.00
             370.21,302.39 342.34,309.31 329.00,312.00
             327.71,304.81 328.03,304.06 328.00,297.00
             328.00,297.00 326.72,282.00 326.72,282.00
             324.17,261.59 319.26,241.09 311.55,222.00
             283.87,153.45 226.51,101.75 156.00,80.20
             141.35,75.73 115.20,71.02 100.00,71.00
             93.63,70.99 93.40,71.15 87.00,70.00 Z
           M 81.72,94.99
           C 85.91,93.19 96.97,93.94 102.00,94.00
             118.21,94.19 143.52,99.84 159.00,105.00
             228.25,128.11 281.22,186.37 298.87,257.00
             301.74,268.48 304.86,286.29 305.00,298.00
             305.00,298.00 305.00,311.00 305.00,311.00
             304.95,319.35 304.01,318.33 291.00,321.85
             291.00,321.85 252.00,332.29 252.00,332.29
             252.00,332.29 204.00,344.88 204.00,344.88
             204.00,344.88 79.00,378.15 79.00,378.15
             79.00,378.15 32.00,390.63 32.00,390.63
             25.99,392.17 18.05,395.50 12.01,392.99
             3.49,389.45 4.56,381.32 6.37,374.00
             6.37,374.00 20.12,323.00 20.12,323.00
             20.12,323.00 62.85,162.00 62.85,162.00
             62.85,162.00 75.29,115.00 75.29,115.00
             76.73,109.92 78.82,98.72 81.72,94.99 Z
           M 131.00,167.33
           C 111.88,171.92 109.20,194.78 119.21,205.96
             125.33,212.79 134.30,214.38 143.00,212.69
             159.59,209.45 165.76,187.72 155.61,175.02
             149.09,166.85 140.63,166.26 131.00,167.33 Z
           M 203.00,239.33
           C 183.88,243.92 181.20,266.78 191.21,277.96
             197.33,284.79 206.30,286.38 215.00,284.69
             231.39,281.49 237.73,259.69 227.61,247.02
             221.09,238.85 212.63,238.26 203.00,239.33 Z
           M 95.00,275.33
           C 75.88,279.92 73.20,302.78 83.21,313.96
             89.33,320.79 98.30,322.38 107.00,320.69
             123.39,317.49 129.73,295.69 119.61,283.02
             113.09,274.85 104.63,274.26 95.00,275.33 Z" />
</svg>
